<?xml version="1.0" encoding="UTF-8"?>
<svg id="jxe-0" xmlns="http://www.w3.org/2000/svg" version="1.1" xmlns:svgjs="http://svgjs.dev/svgjs" viewBox="0 0 1500 1500">
  <defs>
    <style>
      .cls-1 {
        fill: #f56607;
      }

      .cls-1, .cls-2, .cls-3 {
        stroke-width: 0px;
      }

      .cls-2 {
        display: none;
        fill: none;
      }

      .cls-3 {
        fill: #fff;
      }
    </style>
  </defs>
  <g id="tight-bounds">
    <g id="textblocktransform">
      <g id="icon-0">
        <circle class="cls-1" cx="757.5" cy="764.6" r="715.2"/>
        <path class="cls-3" d="M1110.6,1108.1h-433.9c-87.6-21-152.9-99.8-152.9-193.7s76.7-185.8,175.2-197.8l48.7,119.2c9.6,23.3,36.1,34.5,59.4,24.9l63.3-25.9c23.3-9.4,34.5-36.1,24.9-59.4l-198.3-485.8c-9.4-23.3-36.1-34.5-59.4-24.9l-63.3,25.9c-23.3,9.4-34.5,36.1-24.9,59.4l118.7,290.8c-127.6,25.7-224,138.5-224,273.7s30,143.4,78.5,193.7h-118.4c-25.2,0-45.6,20.4-45.6,45.6v68.4c0,25.2,20.4,45.6,45.6,45.6h706.6c25.2,0,45.6-20.4,45.6-45.6v-68.4c0-25.2-20.4-45.6-45.6-45.6M617.8,384.4c6.7,0,12,5.4,12,12s-5.4,12-12,12-12-5.4-12-12,5.4-12,12-12h0M641.1,424.5l94.3,230.5-21.2,8.6-94.3-230.5,21.2-8.6h0Z"/>
        <path class="cls-3" d="M759.9,1008.6l250.7-105,17.6,42-250.7,105-17.6-42ZM886.9,852.6l19.5,47-73.6,30.6-19.5-47,73.6-30.6Z"/>
      </g>
    </g>
    <rect class="cls-2" x="-462.4" y="-455.3" width="2439.6" height="2439.6"/>
  </g>
</svg>